<svg xmlns="http://www.w3.org/2000/svg" viewBox="0 0 469.64 143.9"><defs>
    
    <filter id="dropshadow" height="130%">
  <feGaussianBlur in="SourceAlpha" stdDeviation="3"/> <!-- stdDeviation is how much to blur -->
  <feOffset dx="2" dy="2" result="offsetblur"/> <!-- how much to offset -->
  <feComponentTransfer>
    <feFuncA type="linear" slope="0.5"/> <!-- slope is the opacity of the shadow -->
  </feComponentTransfer>
  <feMerge> 
    <feMergeNode/> <!-- this contains the offset blurred image -->
    <feMergeNode in="SourceGraphic"/> <!-- this contains the element that the filter is applied to -->
  </feMerge>
</filter>


<style>.cls-1{fill:#fff;filter:url(#dropshadow)}</style></defs><path class="cls-1" d="M147,28.45c0-1-.57-1.53-1.7-1.53q-5.26,0-14.42,10.51-8.16,9.4-18.18,30.42a177.87,177.87,0,0,0,23.23-22.38Q147,32.77,147,28.45m-92.64,85q-24.93-7.72-33.87-7.72-9.3,0-9.3,4,0,5.44,21.8,5.43a120,120,0,0,0,21.38-1.74m93.85-85q0,4.94-12.39,19a147.77,147.77,0,0,1-24.12,22.48Q102.79,89,93.33,97.78t-25.51,12.8q28.26,7.38,33.84,8.6a50.23,50.23,0,0,0,10.69,1.21,19.67,19.67,0,0,0,13.35-5.26,2.78,2.78,0,0,1,.78-.34.66.66,0,0,1,.43.34q0,1.12-3.76,3.7-7,4.69-20.24,4.69a95.2,95.2,0,0,1-18.75-1.81q-9-1.81-27.48-7.59a128.43,128.43,0,0,1-24.43,2.3q-22.3,0-22.3-6.69,0-6.26,17-6.26,13.21,0,39.41,6.69a40.68,40.68,0,0,0,13.89-8.88q6.08-5.89,15.32-19.52Q74.45,99.86,56,99.86q-12.51,0-19.93-7.24T28.7,73.06q0-18.86,18.22-35.77T85.46,20.38q9.38,0,15,4.73T106,37.92q0,14.26-13.64,29.51T66,82.67a13.2,13.2,0,0,1-9.13-3.34,10.61,10.61,0,0,1-3.73-8.21,9.66,9.66,0,0,1,2.38-6.51,7.25,7.25,0,0,1,5.65-2.75q4.41,0,4.4,4.24a5.72,5.72,0,0,1-1.7,4.08A5.21,5.21,0,0,1,60,71.95q-3.48,0-3.34-3.13c0-1.34-.11-2-.5-2-1,0-1.57,1.44-1.57,4.32A9.27,9.27,0,0,0,58,78.42a12.38,12.38,0,0,0,8.42,2.92q11.72,0,25-15t13.24-28.3a15.34,15.34,0,0,0-5-11.79q-5-4.63-12.82-4.63-18.82,0-36,18.44T33.53,78.49q0,9.4,6.14,14.76t16.87,5.36A41.48,41.48,0,0,0,74.9,94.15Q84,89.7,97.39,78.63q11.15-18.31,16.19-25.41a117.9,117.9,0,0,1,11.58-13.79q13.14-13.5,20.1-13.5c1.94,0,2.91.83,2.91,2.5"/><path class="cls-1" d="M144.2,65.83a6.44,6.44,0,0,1-2.1,4.56,6.35,6.35,0,0,1-4.58,2.12q-3.2,0-3.2-3.13a6.15,6.15,0,0,1,2.2-4.42,6.6,6.6,0,0,1,4.62-2.13c2,0,3.05,1,3.05,3m1,28.78a7.27,7.27,0,0,1-.71,1.11l-3.06,4.11Q128.09,118,121.05,118a7.43,7.43,0,0,1-5.59-2.33,8,8,0,0,1-2.24-5.81q0-4,4.9-12.25l11.08-18.45a16.82,16.82,0,0,0,3.48.49,41.13,41.13,0,0,0,5.4-.49l-16.13,26q-3.48,5.64-3.48,8.7c0,2.09,1.11,3.13,3.34,3.13q6.32,0,22.27-22.1c.23-.46.47-.7.7-.7a.37.37,0,0,1,.43.42"/><path class="cls-1" d="M182.63,45.29q-29.83,48.65-34.77,57.22t-4.94,11.35q0,3.13,2.7,3.13,6,0,21.91-22.1c.23-.46.52-.7.85-.7a.38.38,0,0,1,.28.42c0,.28-.24.65-.71,1.11l-3.06,4.11Q151.46,118,145.06,118a6.34,6.34,0,0,1-5-2.26,8.47,8.47,0,0,1-2-5.74,16.32,16.32,0,0,1,1.81-7.42q1.81-3.58,12.32-20.7Q165.08,61,173.89,45.57a15.11,15.11,0,0,0,3.77.56,14.2,14.2,0,0,0,5-.84"/><path class="cls-1" d="M191.94,65.83a6.44,6.44,0,0,1-2.1,4.56,6.35,6.35,0,0,1-4.59,2.12q-3.19,0-3.2-3.13a6.15,6.15,0,0,1,2.2-4.42,6.61,6.61,0,0,1,4.61-2.13c2,0,3.06,1,3.06,3m1,28.78a7.27,7.27,0,0,1-.71,1.11l-3.06,4.11Q175.83,118,168.78,118a7.44,7.44,0,0,1-5.58-2.33,8,8,0,0,1-2.24-5.81q0-4,4.9-12.25l11.08-18.45a16.82,16.82,0,0,0,3.48.49,41,41,0,0,0,5.4-.49l-16.12,26q-3.49,5.64-3.48,8.7c0,2.09,1.11,3.13,3.34,3.13q6.33,0,22.26-22.1c.24-.46.48-.7.71-.7a.37.37,0,0,1,.42.42"/><path class="cls-1" d="M382.3,44a36,36,0,0,1-1,7.93q-1,4.31-1.9,4.31a.62.62,0,0,1-.71-.7,2.15,2.15,0,0,1,.14-.63,28.69,28.69,0,0,0,1.89-10.49q0-8.76-5.33-14.08T361.35,25q-12,0-24.29,7.59,10.51,8.21,10.52,17.8,0,8.14-6.65,13.88t-17.51,7.06q7.39,4.18,7.39,12.12,0,5.29-3.77,16.08-2.49,7.11-2.48,11.15a9.34,9.34,0,0,0,3.06,7.07,10.49,10.49,0,0,0,7.48,2.89,14.4,14.4,0,0,0,8.6-3,3.25,3.25,0,0,1,1.29-.56.5.5,0,0,1,.57.56c0,.78-1.33,1.69-4,2.73a19.52,19.52,0,0,1-6.9,1.55,14.56,14.56,0,0,1-11.45-5.33,19.39,19.39,0,0,1-4.62-13.19q0-5.71,5.11-20.13A19.73,19.73,0,0,0,325,77.07a7,7,0,0,0-2.77-5.58q-4.54.42-5.19.42-7,0-7-1.74,0-1.11,3.55-1.11a23.39,23.39,0,0,1,8.39,1.6A22,22,0,0,0,335.78,63a22.42,22.42,0,0,0,5.4-15q0-6.81-5.4-13.08l-.71-.9q-15.56,11.41-29.41,39.81Q297.28,91,290.31,98.6t-19.53,13.71q-14.85,7.1-26.5,7.1-9.51,0-15.83-4.28t-6.33-10.68a9.09,9.09,0,0,1,2.2-6.12,6.62,6.62,0,0,1,5.18-2.58q4.34,0,4.34,4.74a5.92,5.92,0,0,1-1.46,4,4.58,4.58,0,0,1-3.59,1.67q-3.69,0-3.55-3.76c.05-1,0-1.53-.28-1.53q-1.14,0-1.14,3.69,0,5.78,5.79,9.61T244.2,118q15.54,0,28.19-11.28a71.51,71.51,0,0,0,9.43-10.09q4.26-5.56,18.6-27a188.65,188.65,0,0,1,16.89-21.23q9.74-10.65,16.54-15.24-11.08-9.25-32.54-9.25-30,0-52.14,21.23Q231,62.55,231,77.93q0,7.8,5.11,12.39T250,94.92q14.29,0,29.52-13.43t15.24-26.1q0-10.09-10.59-10.09T261.44,56.87Q249.33,68.45,249.33,78.6A6.05,6.05,0,0,0,251,82.91a5.36,5.36,0,0,0,4,1.81c.81,0,1.21.21,1.21.62s-.44.56-1.35.56a7.09,7.09,0,0,1-5.78-3,11.69,11.69,0,0,1-2.36-7.41q0-10.85,12.15-21.14T283.85,44q12.22,0,12.22,11.07,0,13.51-15.56,27.28T249.83,96.17q-9.88,0-15.8-5.81t-5.93-15.56q0-19.7,22.69-36A84.29,84.29,0,0,1,301,22.6q20.88,0,35.09,9.11,13-7.93,25.14-7.93,9.52,0,15.31,5.57T382.3,44"/><path class="cls-1" d="M383.87,85.18q0-5.64-5.19-5.64-6.46,0-15.77,12.11t-9.3,20.4q0,4.8,4.68,4.8,7.68,0,16.77-12.39A6.77,6.77,0,0,1,373,99.86a11.68,11.68,0,0,1,2.77-7q2.76-3.62,5.4-3.62,1.14,0,1.56,1.4a12.69,12.69,0,0,0,1.14-5.43m11.54,9.36q0,1.11-4.2,5.2-6.25,6.11-11.51,6.1a8.78,8.78,0,0,1-3.91-.83q-9.38,13-17.64,13a9.34,9.34,0,0,1-7.28-3.44,12.07,12.07,0,0,1-3-8.25q0-10.72,14.35-20.67,10.09-7,16.63-7,6.1,0,6.1,6.4,0,8-8.59,19.28a6.19,6.19,0,0,0,3.2.84q3.19,0,7.47-2.91a25.47,25.47,0,0,0,7-7c.52-.64.9-1,1.14-1a.25.25,0,0,1,.28.28"/><path class="cls-1" d="M409.65,95.06q0-2.09-.14-4.15T409.37,85a39.65,39.65,0,0,1,.29-5.22q-4,4.94-11.51,13.92a3.38,3.38,0,0,1,1.35,2.71q0,4.11-6.89,5.57a8.88,8.88,0,0,0-4.79,3,7.41,7.41,0,0,0-2,4.91,6.08,6.08,0,0,0,2.06,4.67,7.31,7.31,0,0,0,5.11,1.88q6,0,11.33-6.79a23.06,23.06,0,0,0,5.37-14.58m9.87-27.46q0,2.78-8.88,11a19.72,19.72,0,0,0-.43,3.76q0,4,3.77,12.81a19.23,19.23,0,0,1,1.91,7.38q0,6.26-6.21,10.86A24.1,24.1,0,0,1,394.95,118a10.89,10.89,0,0,1-7.71-2.68,9.39,9.39,0,0,1-2.88-7.21A16.52,16.52,0,0,1,388.16,98Q392,93,396,93a2.88,2.88,0,0,1,1.28.28L403,86.5q2.56-3,6.82-8.29a24.28,24.28,0,0,1,3.69-8.35q2.49-3.48,4.9-3.48c.76,0,1.13.4,1.13,1.22"/><path class="cls-1" d="M453.69,81.76q0-2.22-2.48-2.22-3.76,0-9.91,5.11a72.6,72.6,0,0,0-12,13.26,56.07,56.07,0,0,0,17.33-7.28q7.11-4.7,7.09-8.88m6,12.91a8.49,8.49,0,0,1-1.28,1.81l-3.06,3.75Q440.64,118,430.12,118a11.11,11.11,0,0,1-8.35-3.51,12.17,12.17,0,0,1-3.38-8.8q0-12.53,17.83-22.07,9.37-5,15.27-5a6.61,6.61,0,0,1,4.37,1.49,4.57,4.57,0,0,1,1.81,3.65q0,5-6.68,8.53t-22.3,6.58q-4.83,7.16-4.83,12,0,6,6.61,6,11.24,0,27.51-21.47c.58-.74,1-1.11,1.43-1.11a.38.38,0,0,1,.28.42"/></svg>